Coordinates
version=1
nRows=8
nColumns=63
inDegrees=yes

Units are S.I. units (second, meters, Newtons, ...)
If the header above contains a line with 'inDegrees', this indicates whether rotational values are in degrees (yes) or radians (no).

endheader
time	pelvis_tilt	pelvis_list	pelvis_rotation	pelvis_tx	pelvis_ty	pelvis_tz	hip_flexion_r	hip_adduction_r	hip_rotation_r	knee_angle_r	knee_angle_r_beta	ankle_angle_r	subtalar_angle_r	mtp_angle_r	hip_flexion_l	hip_adduction_l	hip_rotation_l	knee_angle_l	knee_angle_l_beta	ankle_angle_l	subtalar_angle_l	mtp_angle_l	L5_S1_Flex_Ext	L5_S1_Lat_Bending	L5_S1_axial_rotation	L4_L5_Flex_Ext	L4_L5_Lat_Bending	L4_L5_axial_rotation	L3_L4_Flex_Ext	L3_L4_Lat_Bending	L3_L4_axial_rotation	L2_L3_Flex_Ext	L2_L3_Lat_Bending	L2_L3_axial_rotation	L1_L2_Flex_Ext	L1_L2_Lat_Bending	L1_L2_axial_rotation	L1_T12_Flex_Ext	L1_T12_Lat_Bending	L1_T12_axial_rotation	Abs_r3	Abs_r2	Abs_r1	Abs_t1	Abs_t2	neck_flexion	neck_bending	neck_rotation	arm_flex_r	arm_add_r	arm_rot_r	elbow_flex_r	pro_sup_r	wrist_flex_r	wrist_dev_r	arm_flex_l	arm_add_l	arm_rot_l	elbow_flex_l	pro_sup_l	wrist_flex_l	wrist_dev_l
      2.66666667	     -1.90578761	     -0.64057187	     78.80578278	      0.18835477	      0.86303893	      0.53807384	      7.84008196	      3.26064535	     -6.81963068	     19.00741163	      0.33174192	     46.57788022	      3.30441636	      0.00000000	      6.11533035	     -0.61850841	      8.22832091	     15.25740299	      0.26629192	     45.67517990	      1.46880262	      0.00000000	      0.13902664	      0.44163161	     -1.33715082	      0.25818638	      0.58737004	     -1.42072274	      0.22840687	      1.07378309	     -1.42072274	      0.15889355	      1.07378309	     -1.17000697	      0.12910014	      0.90057517	     -1.08643504	      0.07943982	      0.68408736	     -1.00286311	      0.99305342	      4.99582505	     -7.43683170	      0.00000000	      0.00000000	     27.75680782	      2.19622311	     -1.22794607	      2.26593923	    -16.66406288	     60.04499513	     22.53372902	     54.35651628	    -11.11960493	     -2.22867726	      5.70017210	    -12.05374487	     84.49096358	     17.99046132	     38.55863917	    -12.28630388	     -9.71639077
      2.68333333	     -1.83810642	     -0.74930067	     78.70367656	      0.18796401	      0.86267262	      0.53860833	      8.15688136	      3.36344854	     -6.38482700	     19.33406021	      0.33744301	     46.37250010	      2.73899494	      0.00000000	      6.21515656	     -0.70923464	      7.99128869	     15.31132933	      0.26723311	     45.63705216	      1.46946114	      0.00000000	      0.12857058	      0.45985021	     -1.33518974	      0.23876842	      0.61160077	     -1.41863910	      0.21122860	      1.11807979	     -1.41863910	      0.14694331	      1.11807979	     -1.16829102	      0.11939064	      0.93772654	     -1.08484166	      0.07346523	      0.71230797	     -1.00139230	      0.91836679	      5.20191750	     -7.42592477	      0.00000000	      0.00000000	     27.81374388	      2.36418536	     -0.61375775	      2.26896362	    -16.83690178	     59.74746956	     22.86610024	     54.22921803	    -11.23252539	     -1.72883727	      5.87543620	    -12.08529150	     84.18334157	     18.39833227	     40.19281232	    -13.68005590	     -9.57918700
      2.70000000	     -2.02076623	     -1.06703668	     78.75029661	      0.18793501	      0.86175959	      0.53921248	      8.78858986	      3.17288694	     -6.57475489	     19.77510551	      0.34514070	     46.40472597	      2.87271942	      0.00000000	      6.79473914	     -0.74543637	      6.83508262	     15.65427249	      0.27321860	     45.85178801	      2.84449803	      0.00000000	      0.15867037	      0.44420334	     -1.40487744	      0.29466674	      0.59079044	     -1.49268228	      0.26067955	      1.08003600	     -1.49268228	      0.18134436	      1.08003600	     -1.22926776	      0.14734130	      0.90581945	     -1.14146292	      0.09066425	      0.68807097	     -1.05365808	      1.13336656	      5.02491703	     -7.81350686	      0.00000000	      0.00000000	     27.88171262	      2.90512179	      0.02847287	      3.41503790	    -16.71117941	     66.15902333	     21.96843792	     46.56443926	    -10.67379203	     -3.07593356	      3.95773951	    -12.69416878	     69.47645590	     20.15955874	     57.30784328	    -14.09581749	     -6.62408822
      2.71666667	     -2.11172387	     -1.25031240	     78.54495348	      0.18779995	      0.86129617	      0.53943429	      9.21336715	      3.08739466	     -6.33971491	     20.15904198	      0.35184166	     46.30713043	      2.70453662	      0.00000000	      7.00083096	     -0.68807715	      6.66104459	     15.66670337	      0.27343556	     45.79117414	      2.78342262	      0.00000000	      0.16688258	      0.44438453	     -1.34118600	      0.30991765	      0.59103142	     -1.42501013	      0.27417140	      1.08047654	     -1.42501013	      0.19073010	      1.08047654	     -1.17353775	      0.15496717	      0.90618893	     -1.08971363	      0.09535671	      0.68835163	     -1.00588950	      1.19202560	      5.02696666	     -7.45927420	      0.00000000	      0.00000000	     27.98539683	      2.87912745	      0.05792226	      3.23392800	    -16.74910980	     65.59332441	     21.97380130	     46.44393314	    -10.75679248	     -2.85091642	      4.19131921	    -12.67424780	     70.01595770	     20.13797640	     57.86693243	    -14.50659332	     -6.79461023
      2.73333333	     -2.28405854	     -1.55405520	     78.17134569	      0.18795244	      0.86062573	      0.53967192	      9.80327583	      2.98335286	     -5.93813000	     20.52528043	      0.35823372	     46.28894377	      2.55715785	      0.00000000	      7.38817346	     -0.57792653	      6.38553221	     15.74213084	      0.27475201	     45.85004113	      2.71267127	      0.00000000	      0.20079112	      0.43744964	     -1.22038876	      0.37288918	      0.58180802	     -1.29666305	      0.32987972	      1.06361506	     -1.29666305	      0.22948417	      1.06361506	     -1.06784016	      0.18645463	      0.89204731	     -0.99156586	      0.11473204	      0.67760949	     -0.91529157	      1.43423086	      4.94851782	     -6.78743615	      0.00000000	      0.00000000	     28.07091095	      2.64731314	     -0.38410598	      2.86844388	    -16.65196988	     64.72764542	     21.75907504	     46.17879175	    -10.83089058	     -2.84793865	      4.41794019	    -12.54601281	     70.67053526	     19.83151399	     58.55396699	    -14.70628688	     -7.00112465
      2.75000000	     -2.43019780	     -1.77063388	     77.78993362	      0.18833783	      0.86013556	      0.53954036	     10.21319661	      2.91041382	     -5.49836642	     20.76911661	      0.36248947	     46.33028287	      2.44489204	      0.00000000	      7.59587875	     -0.48897231	      6.26549597	     15.68511408	      0.27375688	     45.92685869	      2.65865329	      0.00000000	      0.23013679	      0.42803585	     -1.10129254	      0.42738703	      0.56928768	     -1.17012333	      0.37809173	      1.04072636	     -1.17012333	      0.26302334	      1.04072636	     -0.96363097	      0.21370502	      0.87285070	     -0.89480019	      0.13150016	      0.66302753	     -0.82596941	      1.64384407	      4.84202711	     -6.12505873	      0.00000000	      0.00000000	     28.14065712	      2.35103741	     -1.00302378	      2.32588112	    -16.54772762	     63.28882992	     21.70272158	     45.97743961	    -10.92878635	     -2.82405906	      4.40446132	    -12.47067652	     70.82921762	     19.62895641	     58.23961706	    -14.55573862	     -7.24799150
      2.76666667	     -2.61458221	     -2.11012810	     77.64287831	      0.18825191	      0.85953970	      0.53958670	     10.74854346	      2.75713280	     -5.43347222	     20.95725271	      0.36577306	     46.48326166	      2.54172995	      0.00000000	      8.12468751	     -0.36178389	      6.23677046	     15.85059833	      0.27664513	     46.07060261	      2.81485542	      0.00000000	      0.28314630	      0.41792277	     -1.04968684	      0.52583099	      0.55583729	     -1.11529227	      0.46518106	      1.01613743	     -1.11529227	      0.32360791	      1.01613743	     -0.91847599	      0.26292965	      0.85222812	     -0.85287056	      0.16178980	      0.64736238	     -0.78726513	      2.02248571	      4.72762601	     -5.83804332	      0.00000000	      0.00000000	     28.19432987	      2.39166145	     -1.09967949	      2.04251485	    -16.39568566	     62.71743764	     21.50944779	     45.73745996	    -11.09365798	     -2.18083925	      4.22991375	    -12.48069795	     70.53944200	     19.76246984	     57.31583654	    -14.40037624	     -6.54722311
      2.78333333	     -2.20586937	     -2.20278659	     77.11116842	      0.18757272	      0.86029792	      0.53823389	     10.50890933	      3.21584764	     -4.79015104	     20.53039863	      0.35832305	     46.21149841	      2.31676713	      0.00000000	      7.78829065	     -0.66074566	      6.58839904	     15.39826874	      0.26875049	     45.99996872	      2.05738781	      0.00000000	      0.28839508	      0.49410147	     -0.87391904	      0.53557851	      0.65715495	     -0.92853898	      0.47380428	      1.20135831	     -0.92853898	      0.32960674	      1.20135831	     -0.76467916	      0.26780368	      1.00757171	     -0.71005922	      0.16478895	      0.76536317	     -0.65543928	      2.05997725	      5.58937462	     -4.86047553	      0.00000000	      0.00000000	     28.21916407	      1.57278163	     -1.57013535	     -0.10874730	    -16.70061001	     52.78553958	     22.69252728	     52.84413710	    -10.82995708	     -1.05859666	      8.03075681	     -7.34792679	    128.66864579	      8.45903297	      4.10859332	     -7.49517208	    -15.23730587
